<?xml version="1.0" standalone="no"?>
<!DOCTYPE svg PUBLIC "-//W3C//DTD SVG 20010904//EN"
 "http://www.w3.org/TR/2001/REC-SVG-20010904/DTD/svg10.dtd">
<svg version="1.0" xmlns="http://www.w3.org/2000/svg"
 width="1476.000000pt" height="1476.000000pt" viewBox="0 0 1476.000000 1476.000000"
 preserveAspectRatio="xMidYMid meet">
<metadata>
Created by potrace 1.11, written by Peter Selinger 2001-2013
</metadata>
<g transform="translate(0.000000,1476.000000) scale(0.100000,-0.100000)"
fill="#000000" stroke="none">
<path d="M7835 10824 c-918 -109 -1750 -619 -2263 -1387 -49 -73 -110 -173
-137 -222 -27 -50 -49 -91 -50 -92 0 -1 -44 15 -97 36 -122 49 -309 103 -463
133 -110 21 -145 23 -430 23 -295 -1 -316 -2 -441 -27 -414 -84 -759 -244
-1079 -501 -96 -77 -283 -265 -361 -362 -182 -229 -344 -535 -426 -806 l-23
-76 -60 19 c-193 60 -498 76 -718 38 -474 -81 -894 -389 -1115 -819 -121 -233
-172 -449 -172 -721 0 -272 51 -488 172 -721 221 -431 642 -739 1117 -820 114
-19 191 -19 5831 -17 l5715 3 110 22 c485 98 869 303 1196 639 313 323 514
718 595 1174 27 151 27 579 0 730 -85 479 -301 888 -642 1221 -269 261 -590
446 -949 544 -222 61 -302 70 -590 70 -210 0 -280 -4 -365 -19 -298 -53 -574
-159 -820 -314 l-95 -60 -46 142 c-224 686 -665 1265 -1268 1665 -413 274
-895 449 -1391 506 -171 19 -567 19 -735 -1z"/>
</g>
</svg>
